<svg width="157" height="112" viewBox="0 0 157 112" fill="none" xmlns="http://www.w3.org/2000/svg">
<path d="M37.9165 24.9312C36.109 25.7581 35.4588 26.6089 33.849 28.7156C33.2607 29.4854 32.5441 30.4229 31.5959 31.5885C31.0097 32.3091 30.3709 33.0559 29.6572 33.8292C26.3295 37.4346 21.3761 41.6149 12.5602 46.3949C9.96906 47.7997 9.17307 50.6738 10.1989 52.7169C15.8932 64.0574 22.4684 74.9218 29.3087 83.1713C36.3093 91.6142 42.9131 96.492 48.5061 97.3997C51.5654 97.8964 54.4476 98.3866 57.1139 98.8558C62.1263 99.738 66.3759 100.546 69.606 101.184C70.5196 101.364 71.4439 101.278 72.2827 100.969L72.6367 100.823L76.494 109.254L75.9933 109.471C73.4736 110.509 70.6507 110.827 67.8502 110.274C62.9844 109.313 55.7471 107.957 47.0582 106.547C37.9724 105.072 29.5044 97.8755 22.2122 89.0809C14.7599 80.0931 7.82122 68.5559 1.94989 56.8627C-1.61961 49.7539 1.77214 41.6991 8.14543 38.2434C17.8545 32.9792 21.9113 28.8144 24.4292 25.7189C24.8624 25.1863 25.296 24.6084 25.7479 24.0056C27.6894 21.4164 29.9742 18.3689 34.0592 16.5L37.9165 24.9312Z" fill="#1059C6"/>
<path d="M118.807 23.9312C118.88 23.9647 118.951 23.9982 119.021 24.0319C120.668 24.8291 121.329 25.6942 122.874 27.7156C123.462 28.4854 124.179 29.4229 125.127 30.5885C126.14 31.8333 127.309 33.1561 128.75 34.5584C132.033 37.7534 136.722 41.3605 144.163 45.3949C146.754 46.7997 147.55 49.6738 146.524 51.7169C140.83 63.0574 134.255 73.9218 127.414 82.1713C120.414 90.6142 113.81 95.492 108.217 96.3997C106.741 96.6394 105.306 96.8775 103.916 97.1126C97.0135 98.2802 91.2362 99.3705 87.117 100.184C86.2034 100.364 85.2791 100.278 84.4403 99.9687L84.0863 99.8227L80.229 108.254L80.7297 108.471C83.2494 109.509 86.0723 109.827 88.8728 109.274C93.7386 108.313 100.976 106.957 109.665 105.547C118.751 104.072 127.219 96.8755 134.511 88.0809C141.963 79.093 148.902 67.5559 154.773 55.8627C158.343 48.7539 154.951 40.6991 148.578 37.2434C138.868 31.9792 134.812 27.8143 132.294 24.7189C131.861 24.1863 131.427 23.6084 130.975 23.0056C129.034 20.4164 126.749 17.3689 122.664 15.5L118.912 23.7004L118.807 23.9312Z" fill="#1059C6"/>
<path fill-rule="evenodd" clip-rule="evenodd" d="M69.971 14.2413C64.8445 16.7629 57.6681 19.3506 44.4596 20.2431C41.2632 20.4591 39.1772 22.9288 39.2672 25.4015C39.7674 39.1271 41.3542 52.7799 44.3848 63.9792C47.4865 75.4414 51.8073 83.2164 56.9252 86.6282C64.9872 92.0034 71.6212 96.664 76.0706 99.8536C77.9481 101.199 80.51 101.199 82.387 99.8536C86.8365 96.664 93.4709 92.0034 101.533 86.6282C106.651 83.2164 110.972 75.4415 114.073 63.9797C117.104 52.7804 118.691 39.1274 119.191 25.4015C119.207 24.94 119.148 24.4786 119.021 24.0319C118.989 23.9204 118.953 23.8098 118.912 23.7004C118.247 21.8994 116.449 20.4087 113.999 20.2431C100.79 19.3506 93.6134 16.7629 88.4872 14.2413C87.0226 13.5209 85.8902 12.9206 84.9604 12.4277C82.4161 11.0792 81.3891 10.5348 79.2291 10.5348C77.0686 10.5348 76.0415 11.0792 73.4977 12.4277C72.568 12.9206 71.4356 13.5209 69.971 14.2413ZM67.6202 4.14408C70.7101 2.46988 74.3462 0.5 79.2291 0.5C84.112 0.5 87.7476 2.46988 90.8378 4.14413C91.5573 4.53393 92.2472 4.90772 92.9165 5.23692C96.805 7.14974 102.697 9.42187 114.675 10.2312C122.537 10.7624 129.532 17.1629 129.219 25.7669C129.112 28.6911 128.958 31.6293 128.75 34.5584C127.954 45.8061 126.379 56.9205 123.759 66.6008C120.529 78.5402 115.413 89.4354 107.099 94.9782C106.011 95.7035 104.95 96.4156 103.916 97.1126C97.3989 101.509 92.0102 105.302 88.2338 108.009C82.8617 111.861 75.5965 111.861 70.2244 108.009C66.9568 105.667 62.4821 102.511 57.1139 98.8558C55.2942 97.6167 53.3718 96.32 51.3589 94.9782C43.045 89.4354 37.9293 78.5402 34.6985 66.6008C32.0222 56.711 30.4366 45.3248 29.6572 33.8292C29.475 31.1418 29.3369 28.4485 29.2391 25.767C28.9256 17.1629 35.9207 10.7624 43.7831 10.2312C55.7606 9.42187 61.653 7.14974 65.5416 5.23692C66.2108 4.90772 66.9007 4.53393 67.6202 4.14408Z" fill="#247CFF"/>
<path d="M82.033 39.2687C85.6096 39.2687 88.5091 36.3693 88.5091 32.7927C88.5091 29.216 85.6096 26.3166 82.033 26.3166C78.4564 26.3166 75.5569 29.216 75.5569 32.7927C75.5569 33.3705 75.6326 33.9307 75.7746 34.4638C76.1938 36.038 77.1912 37.3763 78.5255 38.2376C79.5363 38.8901 80.7404 39.2687 82.033 39.2687Z" fill="#247CFF"/>
<path d="M103.297 61.7125C106.874 61.7125 109.773 58.813 109.773 55.2364C109.773 51.6598 106.874 48.7603 103.297 48.7603C99.7207 48.7603 96.8212 51.6598 96.8212 55.2364C96.8212 57.3196 97.8048 59.1731 99.333 60.3577C100.428 61.207 101.804 61.7125 103.297 61.7125Z" fill="#247CFF"/>
<path d="M82.033 82.8209C85.6096 82.8209 88.5091 79.9214 88.5091 76.3448C88.5091 72.7682 85.6096 69.8687 82.033 69.8687C80.5145 69.8687 79.118 70.3914 78.0137 71.2666C76.517 72.4528 75.5569 74.2867 75.5569 76.3448C75.5569 79.9214 78.4564 82.8209 82.033 82.8209Z" fill="#247CFF"/>
<path d="M60.4908 73.3182C62.9783 73.3182 65.1382 71.9157 66.223 69.8584C66.698 68.9576 66.9669 67.9313 66.9669 66.8421C66.9669 63.2655 64.0674 60.366 60.4908 60.366C56.9142 60.366 54.0147 63.2655 54.0147 66.8421C54.0147 70.4188 56.9142 73.3182 60.4908 73.3182Z" fill="#247CFF"/>
<path d="M60.4908 47.9925C61.8065 47.9925 63.0306 47.6001 64.0524 46.9261C65.8083 45.7677 66.9669 43.7774 66.9669 41.5164C66.9669 37.9398 64.0674 35.0404 60.4908 35.0404C56.9142 35.0404 54.0147 37.9398 54.0147 41.5164C54.0147 45.0931 56.9142 47.9925 60.4908 47.9925Z" fill="#247CFF"/>
<path d="M82.0219 57.8735C84.9103 57.8735 87.2518 55.532 87.2518 52.6437C87.2518 49.7553 84.9103 47.4138 82.0219 47.4138C79.1336 47.4138 76.7921 49.7553 76.7921 52.6437C76.7921 55.532 79.1336 57.8735 82.0219 57.8735Z" fill="#247CFF"/>
<path d="M29.6572 33.8292C26.3295 37.4346 21.3761 41.6149 12.5602 46.3949C9.96906 47.7997 9.17307 50.6738 10.1989 52.7169C15.8932 64.0574 22.4684 74.9218 29.3087 83.1713C36.3093 91.6142 42.9131 96.492 48.5061 97.3997C51.5654 97.8964 54.4476 98.3866 57.1139 98.8558C55.2942 97.6167 53.3718 96.32 51.3589 94.9782C43.045 89.4354 37.9293 78.5402 34.6985 66.6008C32.0222 56.711 30.4366 45.3248 29.6572 33.8292Z" fill="#1059C6"/>
<path d="M144.163 45.3949C136.722 41.3605 132.033 37.7534 128.75 34.5584C127.954 45.8061 126.379 56.9205 123.759 66.6008C120.529 78.5402 115.413 89.4354 107.099 94.9782C106.011 95.7035 104.95 96.4156 103.916 97.1126C105.306 96.8775 106.741 96.6394 108.217 96.3997C113.81 95.492 120.414 90.6142 127.414 82.1713C134.255 73.9218 140.83 63.0574 146.524 51.7169C147.55 49.6738 146.754 46.7997 144.163 45.3949Z" fill="#1059C6"/>
<path fill-rule="evenodd" clip-rule="evenodd" d="M119.021 24.0319C118.951 23.9982 118.88 23.9647 118.807 23.9312L118.912 23.7004C118.247 21.8994 116.449 20.4087 113.999 20.2431C100.79 19.3506 93.6134 16.7629 88.4872 14.2413C87.0226 13.5209 85.8902 12.9206 84.9604 12.4277C82.4161 11.0792 81.3891 10.5348 79.2291 10.5348C77.0686 10.5348 76.0415 11.0792 73.4977 12.4277C72.568 12.9206 71.4356 13.5209 69.971 14.2413C64.8445 16.7629 57.6681 19.3506 44.4596 20.2431C41.2632 20.4591 39.1772 22.9288 39.2672 25.4015C39.7674 39.1271 41.3542 52.7799 44.3848 63.9792C47.4865 75.4414 51.8073 83.2164 56.9252 86.6282C64.9872 92.0034 71.6212 96.664 76.0706 99.8536C77.9481 101.199 80.51 101.199 82.387 99.8536C86.8365 96.664 93.4709 92.0034 101.533 86.6282C106.651 83.2164 110.972 75.4415 114.073 63.9797C117.104 52.7804 118.691 39.1274 119.191 25.4015C119.207 24.94 119.148 24.4786 119.021 24.0319ZM88.5091 32.7927C88.5091 36.3693 85.6096 39.2687 82.033 39.2687C80.7404 39.2687 79.5363 38.8901 78.5255 38.2376L72.2468 47.3268L77.382 50.2291C78.2543 48.5561 80.0046 47.4138 82.0219 47.4138C84.9103 47.4138 87.2518 49.7553 87.2518 52.6437C87.2518 55.532 84.9103 57.8735 82.0219 57.8735C79.1336 57.8735 76.7921 55.532 76.7921 52.6437C76.7921 51.7726 77.0053 50.9514 77.382 50.2291L72.2468 47.3268L67.8954 53.626L78.0137 71.2666C79.118 70.3914 80.5145 69.8687 82.033 69.8687C83.8412 69.8687 85.4761 70.6099 86.651 71.8049L99.333 60.3577C97.8048 59.1731 96.8212 57.3196 96.8212 55.2364C96.8212 53.4679 97.5304 51.8651 98.6795 50.6964C99.8544 49.5016 101.489 48.7603 103.297 48.7603C106.874 48.7603 109.773 51.6598 109.773 55.2364C109.773 58.813 106.874 61.7125 103.297 61.7125C101.804 61.7125 100.428 61.207 99.333 60.3577L86.651 71.8049C87.8001 72.9736 88.5091 74.5763 88.5091 76.3448C88.5091 79.9214 85.6096 82.8209 82.033 82.8209C78.4564 82.8209 75.5569 79.9214 75.5569 76.3448C75.5569 74.2867 76.517 72.4528 78.0137 71.2666L67.8954 53.626L64.0524 46.9261C63.0306 47.6001 61.8065 47.9925 60.4908 47.9925C56.9142 47.9925 54.0147 45.0931 54.0147 41.5164C54.0147 37.9398 56.9142 35.0404 60.4908 35.0404C64.0674 35.0404 66.9669 37.9398 66.9669 41.5164C66.9669 43.7774 65.8083 45.7677 64.0524 46.9261L67.8954 53.626L72.2468 47.3268L78.5255 38.2376C77.1912 37.3763 76.1938 36.038 75.7746 34.4638C75.6326 33.9307 75.5569 33.3705 75.5569 32.7927C75.5569 29.216 78.4564 26.3166 82.033 26.3166C85.6096 26.3166 88.5091 29.216 88.5091 32.7927ZM66.223 69.8584C66.698 68.9576 66.9669 67.9313 66.9669 66.8421C66.9669 63.2655 64.0674 60.366 60.4908 60.366C56.9142 60.366 54.0147 63.2655 54.0147 66.8421C54.0147 70.4188 56.9142 73.3182 60.4908 73.3182C62.9783 73.3182 65.1382 71.9157 66.223 69.8584Z" fill="white"/>
<path d="M96.8212 55.2364C96.8212 51.6598 99.7207 48.7603 103.297 48.7603M96.8212 55.2364C96.8212 57.3196 97.8048 59.1731 99.333 60.3577M96.8212 55.2364C96.8212 53.4679 97.5304 51.8651 98.6795 50.6964M103.297 48.7603C106.874 48.7603 109.773 51.6598 109.773 55.2364C109.773 58.813 106.874 61.7125 103.297 61.7125C101.804 61.7125 100.428 61.207 99.333 60.3577M103.297 48.7603C101.489 48.7603 99.8544 49.5016 98.6795 50.6964M88.5091 76.3448C88.5091 79.9214 85.6096 82.8209 82.033 82.8209C78.4564 82.8209 75.5569 79.9214 75.5569 76.3448C75.5569 74.2867 76.517 72.4528 78.0137 71.2666M88.5091 76.3448C88.5091 72.7682 85.6096 69.8687 82.033 69.8687M88.5091 76.3448C88.5091 74.5763 87.8001 72.9736 86.651 71.8049M82.033 69.8687C80.5145 69.8687 79.118 70.3914 78.0137 71.2666M82.033 69.8687C83.8412 69.8687 85.4761 70.6099 86.651 71.8049M76.7921 52.6437C76.7921 55.532 79.1336 57.8735 82.0219 57.8735C84.9103 57.8735 87.2518 55.532 87.2518 52.6437C87.2518 49.7553 84.9103 47.4138 82.0219 47.4138M76.7921 52.6437C76.7921 49.7553 79.1336 47.4138 82.0219 47.4138M76.7921 52.6437C76.7921 51.7726 77.0053 50.9514 77.382 50.2291M82.0219 47.4138C80.0046 47.4138 78.2543 48.5561 77.382 50.2291M66.0655 38.2117L75.7746 34.4638M75.7796 34.4618L75.7746 34.4638M86.5731 37.4216L98.6795 50.6964M99.3361 60.3549L99.333 60.3577M86.651 71.8049L99.333 60.3577M64.0514 46.9243L64.0524 46.9261M78.0161 71.2708L78.0137 71.2666M66.2212 69.8576L66.223 69.8584M75.557 74.1861L66.223 69.8584M62.9166 60.8333L67.8954 53.626M78.5281 38.2338L78.5255 38.2376M66.455 44.0535L72.2468 47.3268M77.382 50.2291L72.2468 47.3268M87.2632 53.2335L96.8215 53.9567M82.0221 57.8846L82.0332 69.8576M29.6572 33.8292C26.3295 37.4346 21.3761 41.6149 12.5602 46.3949C9.96906 47.7997 9.17307 50.6738 10.1989 52.7169C15.8932 64.0574 22.4684 74.9218 29.3087 83.1713C36.3093 91.6142 42.9131 96.492 48.5061 97.3997C51.5654 97.8964 54.4476 98.3866 57.1139 98.8558M29.6572 33.8292C30.4366 45.3248 32.0222 56.711 34.6985 66.6008C37.9293 78.5402 43.045 89.4354 51.3589 94.9782C53.3718 96.32 55.2942 97.6167 57.1139 98.8558M29.6572 33.8292C29.475 31.1418 29.3369 28.4485 29.2391 25.767C28.9256 17.1629 35.9207 10.7624 43.7831 10.2312C55.7606 9.42187 61.653 7.14974 65.5416 5.23692C66.2108 4.90772 66.9007 4.53393 67.6202 4.14408C70.7101 2.46988 74.3462 0.5 79.2291 0.5C84.112 0.5 87.7476 2.46988 90.8378 4.14413C91.5573 4.53393 92.2472 4.90772 92.9165 5.23692C96.805 7.14974 102.697 9.42187 114.675 10.2312C122.537 10.7624 129.532 17.1629 129.219 25.7669C129.112 28.6911 128.958 31.6293 128.75 34.5584M29.6572 33.8292C30.3709 33.0559 31.0097 32.3091 31.5959 31.5885C32.5441 30.4229 33.2607 29.4854 33.849 28.7156C35.4588 26.6089 36.109 25.7581 37.9165 24.9312L34.0592 16.5C29.9742 18.3689 27.6894 21.4164 25.7479 24.0056C25.296 24.6084 24.8624 25.1863 24.4292 25.7189C21.9113 28.8144 17.8545 32.9792 8.14543 38.2434C1.77214 41.6991 -1.61961 49.7539 1.94989 56.8627C7.82122 68.5559 14.7599 80.0931 22.2122 89.0809C29.5044 97.8755 37.9724 105.072 47.0582 106.547C55.7471 107.957 62.9844 109.313 67.8502 110.274C70.6507 110.827 73.4736 110.509 75.9933 109.471L76.494 109.254L72.6367 100.823L72.2827 100.969C71.4439 101.278 70.5196 101.364 69.606 101.184C66.3759 100.546 62.1263 99.738 57.1139 98.8558M57.1139 98.8558C62.4821 102.511 66.9568 105.667 70.2244 108.009C75.5965 111.861 82.8617 111.861 88.2338 108.009C92.0102 105.302 97.3989 101.509 103.916 97.1126M128.75 34.5584C132.033 37.7534 136.722 41.3605 144.163 45.3949C146.754 46.7997 147.55 49.6738 146.524 51.7169C140.83 63.0574 134.255 73.9218 127.414 82.1713C120.414 90.6142 113.81 95.492 108.217 96.3997C106.741 96.6394 105.306 96.8775 103.916 97.1126M128.75 34.5584C127.954 45.8061 126.379 56.9205 123.759 66.6008C120.529 78.5402 115.413 89.4354 107.099 94.9782C106.011 95.7035 104.95 96.4156 103.916 97.1126M128.75 34.5584C127.309 33.1561 126.14 31.8333 125.127 30.5885C124.179 29.4229 123.462 28.4854 122.874 27.7156C121.329 25.6942 120.668 24.8291 119.021 24.0319M103.916 97.1126C97.0135 98.2802 91.2362 99.3705 87.117 100.184C86.2034 100.364 85.2791 100.278 84.4403 99.9687L84.0863 99.8227L80.229 108.254L80.7297 108.471C83.2494 109.509 86.0723 109.827 88.8728 109.274C93.7386 108.313 100.976 106.957 109.665 105.547C118.751 104.072 127.219 96.8755 134.511 88.0809C141.963 79.093 148.902 67.5559 154.773 55.8627C158.343 48.7539 154.951 40.6991 148.578 37.2434C138.868 31.9792 134.812 27.8143 132.294 24.7189C131.861 24.1863 131.427 23.6084 130.975 23.0056C129.034 20.4164 126.749 17.3689 122.664 15.5L118.912 23.7004M119.021 24.0319C118.951 23.9982 118.88 23.9647 118.807 23.9312L118.912 23.7004M119.021 24.0319C119.148 24.4786 119.207 24.94 119.191 25.4015C118.691 39.1274 117.104 52.7804 114.073 63.9797C110.972 75.4415 106.651 83.2164 101.533 86.6282C93.4709 92.0034 86.8365 96.664 82.387 99.8536C80.51 101.199 77.9481 101.199 76.0706 99.8536C71.6212 96.664 64.9872 92.0034 56.9252 86.6282C51.8073 83.2164 47.4865 75.4414 44.3848 63.9792C41.3542 52.7799 39.7674 39.1271 39.2672 25.4015C39.1772 22.9288 41.2632 20.4591 44.4596 20.2431C57.6681 19.3506 64.8445 16.7629 69.971 14.2413C71.4356 13.5209 72.568 12.9206 73.4977 12.4277C76.0415 11.0792 77.0686 10.5348 79.2291 10.5348C81.3891 10.5348 82.4161 11.0792 84.9604 12.4277C85.8902 12.9206 87.0226 13.5209 88.4872 14.2413C93.6134 16.7629 100.79 19.3506 113.999 20.2431C116.449 20.4087 118.247 21.8994 118.912 23.7004M119.021 24.0319C118.989 23.9204 118.953 23.8098 118.912 23.7004M78.5255 38.2376C79.5363 38.8901 80.7404 39.2687 82.033 39.2687C85.6096 39.2687 88.5091 36.3693 88.5091 32.7927C88.5091 29.216 85.6096 26.3166 82.033 26.3166C78.4564 26.3166 75.5569 29.216 75.5569 32.7927C75.5569 33.3705 75.6326 33.9307 75.7746 34.4638M78.5255 38.2376L72.2468 47.3268M78.5255 38.2376C77.1912 37.3763 76.1938 36.038 75.7746 34.4638M72.2468 47.3268L67.8954 53.626M67.8954 53.626L78.0137 71.2666M67.8954 53.626L64.0524 46.9261M64.0524 46.9261C63.0306 47.6001 61.8065 47.9925 60.4908 47.9925C56.9142 47.9925 54.0147 45.0931 54.0147 41.5164C54.0147 37.9398 56.9142 35.0404 60.4908 35.0404C64.0674 35.0404 66.9669 37.9398 66.9669 41.5164C66.9669 43.7774 65.8083 45.7677 64.0524 46.9261ZM66.223 69.8584C66.698 68.9576 66.9669 67.9313 66.9669 66.8421C66.9669 63.2655 64.0674 60.366 60.4908 60.366C56.9142 60.366 54.0147 63.2655 54.0147 66.8421C54.0147 70.4188 56.9142 73.3182 60.4908 73.3182C62.9783 73.3182 65.1382 71.9157 66.223 69.8584Z" stroke="#247CFF"/>
</svg>
